<?xml version="1.0" encoding="UTF-8" standalone="no"?><!DOCTYPE svg PUBLIC "-//W3C//DTD SVG 1.1//EN" "http://www.w3.org/Graphics/SVG/1.1/DTD/svg11.dtd"><svg width="100%" height="100%" viewBox="0 0 492 492" version="1.1" xmlns="http://www.w3.org/2000/svg" xmlns:xlink="http://www.w3.org/1999/xlink" xml:space="preserve" xmlns:serif="http://www.serif.com/" style="fill-rule:evenodd;clip-rule:evenodd;stroke-linejoin:round;stroke-miterlimit:2;"><path d="M433.333,65.833c-10.416,4.584 -14.583,-0.416 -19.583,-2.916c-31.667,-14.584 -61.667,-31.667 -95,-42.917c-20.833,-7.083 -40.833,-5.833 -60.833,1.25c-36.667,12.917 -68.75,33.75 -102.917,51.667c-8.75,4.583 -22.083,14.583 -27.083,5c-5,-9.584 11.25,-14.584 20,-19.167c33.333,-17.917 65.833,-37.917 101.25,-51.667c27.083,-10 53.333,-9.583 80,1.25c36.25,15 68.333,36.25 104.166,57.5Z" style="fill:#4f46e5;fill-rule:nonzero;"/><path d="M5.417,113.75c19.166,-1.667 38.75,-3.75 58.333,-4.167c55.417,-0.833 111.25,-1.25 166.667,-1.25c6.25,0 15.833,-1.666 15.833,7.917c0,7.5 -8.333,7.917 -14.583,7.917c-75.834,-0 -151.25,1.25 -226.25,-10.417Z" style="fill:#4f46e5;fill-rule:nonzero;"/><text x="95.628px" y="254.728px" style="font-family:'HelveticaNeue', 'Helvetica Neue';font-size:116.667px;">Ivmer<tspan x="383.095px " y="254.728px ">o</tspan></text><text x="167.581px" y="393.053px" style="font-family:'HelveticaNeue-Thin', 'Helvetica Neue', sans-serif;font-weight:200;font-size:100px;">Labs</text></svg>